HIERARCHY
ROOT hip
{
  OFFSET 0.00112043 5.09927 -9.65472
  CHANNELS 6 Xposition Yposition Zposition Zrotation Xrotation Yrotation
  JOINT abdomen
  {
    OFFSET 0 -1.186 -1.5018
    CHANNELS 3 Zrotation Xrotation Yrotation
    JOINT abdomen2
    {
      OFFSET 0 9.964 0.2134
      CHANNELS 3 Zrotation Xrotation Yrotation
      JOINT chest
      {
        OFFSET 0 13.134 -3.2573
        CHANNELS 3 Zrotation Xrotation Yrotation
        JOINT neck
        {
          OFFSET 0 20.686 -1.6905
          CHANNELS 3 Zrotation Xrotation Yrotation
          JOINT head
          {
            OFFSET 0 7.238 -0.1237
            CHANNELS 3 Zrotation Xrotation Yrotation
            End Site
            {
              OFFSET 0 0 0
            }
          }
        }
        JOINT lCollar
        {
          OFFSET 1.7069 20.075 5.0056
          CHANNELS 3 Zrotation Xrotation Yrotation
          JOINT lShldr
          {
            OFFSET 13.6458 -0.047 -4.849
            CHANNELS 3 Zrotation Xrotation Yrotation
            JOINT lForeArm
            {
              OFFSET 28.3255 -0.9759 2.2888
              CHANNELS 3 Zrotation Xrotation Yrotation
              JOINT lHand
              {
                OFFSET 22.1583 -0.53 10.8316
                CHANNELS 3 Zrotation Xrotation Yrotation
                JOINT lThumb1
                {
                  OFFSET 0.786 0.112 2.5817
                  CHANNELS 3 Zrotation Xrotation Yrotation
                  JOINT lThumb2
                  {
                    OFFSET 0.3601 -0.878 4.2331
                    CHANNELS 3 Zrotation Xrotation Yrotation
                    JOINT lThumb2_End
                    {
                      OFFSET 1.8127 -1.216 2.2227
                      CHANNELS 3 Zrotation Xrotation Yrotation
                      End Site
                      {
                        OFFSET 0.0181 -0.0122 0.0222
                      }
                    }
                  }
                }
                JOINT lCarpal1
                {
                  OFFSET 0.9571 1.114 1.7695
                  CHANNELS 3 Zrotation Xrotation Yrotation
                  JOINT lIndex1
                  {
                    OFFSET 4.1246 0.487 4.1451
                    CHANNELS 3 Zrotation Xrotation Yrotation
                    JOINT lIndex2
                    {
                      OFFSET 3.4052 -1.454 2.7682
                      CHANNELS 3 Zrotation Xrotation Yrotation
                      JOINT lIndex2_End
                      {
                        OFFSET 1.4531 -1.795 1.2713
                        CHANNELS 3 Zrotation Xrotation Yrotation
                        End Site
                        {
                          OFFSET 0.0145 -0.0179 0.0127
                        }
                      }
                    }
                  }
                  JOINT lMid1
                  {
                    OFFSET 5.6954 0.21 2.1184
                    CHANNELS 3 Zrotation Xrotation Yrotation
                    JOINT lMid2
                    {
                      OFFSET 3.9766 -1.54 2.3863
                      CHANNELS 3 Zrotation Xrotation Yrotation
                      JOINT lMid2_End
                      {
                        OFFSET 1.4042 -1.926 1.125
                        CHANNELS 3 Zrotation Xrotation Yrotation
                        End Site
                        {
                          OFFSET 0.014 -0.0193 0.0113
                        }
                      }
                    }
                  }
                }
                JOINT lCarpal2
                {
                  OFFSET 2.0956 0.66 -0.3894
                  CHANNELS 3 Zrotation Xrotation Yrotation
                  JOINT lRing1
                  {
                    OFFSET 5.0395 -0.09 2.4971
                    CHANNELS 3 Zrotation Xrotation Yrotation
                    JOINT lRing2
                    {
                      OFFSET 3.7921 -1.552 1.4806
                      CHANNELS 3 Zrotation Xrotation Yrotation
                      JOINT lRing2_End
                      {
                        OFFSET 1.4655 -1.808 0.9609
                        CHANNELS 3 Zrotation Xrotation Yrotation
                        End Site
                        {
                          OFFSET 0.0147 -0.0181 0.0096
                        }
                      }
                    }
                  }
                  JOINT lPinky1
                  {
                    OFFSET 4.9141 -1.269 0.3591
                    CHANNELS 3 Zrotation Xrotation Yrotation
                    JOINT lPinky2
                    {
                      OFFSET 3.1477 -1.685 0.8462
                      CHANNELS 3 Zrotation Xrotation Yrotation
                      JOINT lPinky2_End
                      {
                        OFFSET 0.8055 -1.585 0.7955
                        CHANNELS 3 Zrotation Xrotation Yrotation
                        End Site
                        {
                          OFFSET 0.0081 -0.0158 0.008
                        }
                      }
                    }
                  }
                }
              }
            }
          }
        }
        JOINT rCollar
        {
          OFFSET -1.7069 20.075 5.0056
          CHANNELS 3 Zrotation Xrotation Yrotation
          JOINT rShldr
          {
            OFFSET -13.6458 -0.047 -4.849
            CHANNELS 3 Zrotation Xrotation Yrotation
            JOINT rForeArm
            {
              OFFSET -28.3255 -0.9759 2.2888
              CHANNELS 3 Zrotation Xrotation Yrotation
              JOINT rHand
              {
                OFFSET -22.1583 -0.53 10.8316
                CHANNELS 3 Zrotation Xrotation Yrotation
                JOINT rThumb1
                {
                  OFFSET -0.786 0.112 2.5817
                  CHANNELS 3 Zrotation Xrotation Yrotation
                  JOINT rThumb2
                  {
                    OFFSET -0.3601 -0.878 4.2331
                    CHANNELS 3 Zrotation Xrotation Yrotation
                    JOINT rThumb2_End
                    {
                      OFFSET -1.8127 -1.216 2.2227
                      CHANNELS 3 Zrotation Xrotation Yrotation
                      End Site
                      {
                        OFFSET -0.0181 -0.0122 0.0222
                      }
                    }
                  }
                }
                JOINT rCarpal1
                {
                  OFFSET -0.9571 1.114 1.7695
                  CHANNELS 3 Zrotation Xrotation Yrotation
                  JOINT rIndex1
                  {
                    OFFSET -4.1246 0.487 4.1451
                    CHANNELS 3 Zrotation Xrotation Yrotation
                    JOINT rIndex2
                    {
                      OFFSET -3.4052 -1.454 2.7682
                      CHANNELS 3 Zrotation Xrotation Yrotation
                      JOINT rIndex2_End
                      {
                        OFFSET -1.4531 -1.795 1.2713
                        CHANNELS 3 Zrotation Xrotation Yrotation
                        End Site
                        {
                          OFFSET -0.0145 -0.018 0.0127
                        }
                      }
                    }
                  }
                  JOINT rMid1
                  {
                    OFFSET -5.6954 0.21 2.1184
                    CHANNELS 3 Zrotation Xrotation Yrotation
                    JOINT rMid2
                    {
                      OFFSET -3.9766 -1.54 2.3863
                      CHANNELS 3 Zrotation Xrotation Yrotation
                      JOINT rMid2_End
                      {
                        OFFSET -1.4042 -1.926 1.125
                        CHANNELS 3 Zrotation Xrotation Yrotation
                        End Site
                        {
                          OFFSET -0.014 -0.0193 0.0113
                        }
                      }
                    }
                  }
                }
                JOINT rCarpal2
                {
                  OFFSET -2.0956 0.66 -0.3894
                  CHANNELS 3 Zrotation Xrotation Yrotation
                  JOINT rRing1
                  {
                    OFFSET -5.0395 -0.09 2.4971
                    CHANNELS 3 Zrotation Xrotation Yrotation
                    JOINT rRing2
                    {
                      OFFSET -3.7921 -1.552 1.4806
                      CHANNELS 3 Zrotation Xrotation Yrotation
                      JOINT rRing2_End
                      {
                        OFFSET -1.4655 -1.808 0.9609
                        CHANNELS 3 Zrotation Xrotation Yrotation
                        End Site
                        {
                          OFFSET -0.0147 -0.0181 0.0096
                        }
                      }
                    }
                  }
                  JOINT rPinky1
                  {
                    OFFSET -4.9141 -1.269 0.3592
                    CHANNELS 3 Zrotation Xrotation Yrotation
                    JOINT rPinky2
                    {
                      OFFSET -3.1477 -1.685 0.8462
                      CHANNELS 3 Zrotation Xrotation Yrotation
                      JOINT rPinky2_End
                      {
                        OFFSET -0.8055 -1.585 0.7955
                        CHANNELS 3 Zrotation Xrotation Yrotation
                        End Site
                        {
                          OFFSET -0.0081 -0.0158 0.008
                        }
                      }
                    }
                  }
                }
              }
            }
          }
        }
      }
    }
  }
  JOINT lThigh
  {
    OFFSET 8.367 -8.2066 0.5982
    CHANNELS 3 Zrotation Xrotation Yrotation
    JOINT lShin
    {
      OFFSET 2.1923 -43.463 -0.4932
      CHANNELS 3 Zrotation Xrotation Yrotation
      JOINT lFoot
      {
        OFFSET 0.7333 -45.8593 -2.6451
        CHANNELS 3 Zrotation Xrotation Yrotation
        End Site
        {
          OFFSET 2.6618 -4.2699 12.3931
        }
      }
    }
  }
  JOINT rThigh
  {
    OFFSET -8.367 -8.2066 0.5982
    CHANNELS 3 Zrotation Xrotation Yrotation
    JOINT rShin
    {
      OFFSET -2.1923 -43.463 -0.4931
      CHANNELS 3 Zrotation Xrotation Yrotation
      JOINT rFoot
      {
        OFFSET -0.7333 -45.8593 -2.6451
        CHANNELS 3 Zrotation Xrotation Yrotation
        End Site
        {
          OFFSET -2.6618 -4.2699 12.3931
        }
      }
    }
  }
}
MOTION
Frames:	4
Frame Time:	0.0333333
0 91.7903 2.51682 0 0 -0 0 0 -0 0 0 -0 0 0 -0 0 0 -0 0 0 -0 0 0 -0 1.66051 0.0835086 5.75766 -0.0175111 0.895433 15.7816 7.95139e-016 -1.98785e-016 -0 5.46658e-016 -3.97569e-016 -0 5.96354e-016 0 -0 3.97569e-016 1.98785e-016 9.54166e-015 1.49089e-016 -3.97569e-016 -0 6.4605e-016 0 3.18055e-015 5.96354e-016 0 3.18055e-015 8.94531e-016 -1.98785e-016 6.36111e-015 6.4605e-016 0 3.18055e-015 5.96354e-016 0 3.18055e-015 8.94531e-016 -1.98785e-016 6.36111e-015 1.49089e-016 -3.97569e-016 -0 6.4605e-016 0 3.18055e-015 5.96354e-016 0 3.18055e-015 8.94531e-016 -1.98785e-016 6.36111e-015 6.4605e-016 0 3.18055e-015 5.96354e-016 0 3.18055e-015 8.94531e-016 -1.98785e-016 6.36111e-015 0 0 -0 -1.4496 0.0636048 -5.0245 -1.74811 1.20616 -16.8394 -1.19271e-015 1.98785e-016 -3.18055e-015 -3.97569e-016 1.98785e-016 -3.18055e-015 -2.98177e-016 1.98785e-016 -3.18055e-015 -2.98177e-016 3.97569e-016 -0 4.96962e-016 0 -6.36111e-015 -9.93923e-017 3.97569e-016 -0 -8.94531e-016 5.96354e-016 -0 -3.97569e-016 3.97569e-016 -0 -9.93923e-017 3.97569e-016 -0 -8.94531e-016 5.96354e-016 -0 -3.97569e-016 3.97569e-016 -0 4.96962e-016 0 -6.36111e-015 -9.93923e-017 3.97569e-016 -0 -8.94531e-016 5.96354e-016 -0 -3.97569e-016 3.97569e-016 -0 -9.93923e-017 3.97569e-016 -0 -8.94531e-016 5.96354e-016 -0 -3.97569e-016 3.97569e-016 -0 -4.66111 -0.998717 0.12318 0.00986924 1.54847 0.176523 4.65186 -0.572283 -0.254274 4.66111 -0.998765 -0.123176 -0.00986867 1.54869 -0.176537 -4.65186 -0.572453 0.25427 
-7.83927 16.5123 62.4715 -180 68.9257 -180 -0.115865 -5.92573 -0.457621 -0.28189 -11.8503 -0.934931 -0.28189 -11.8503 -0.93493 -4.74266e-006 -33.2076 -2.41403e-006 2.27457e-007 -16.1336 -6.30257e-010 -6.26031 -8.70149 -26.9292 8.91798 -1.72363 -15.5604 35.0746 -24.9447 -23.8675 6.68116 -11.5789 1.77415 -3.18055e-015 -6.36111e-015 1.59028e-015 -3.18055e-015 -8.74653e-015 3.18055e-015 -3.18055e-015 -4.77083e-015 -0 -3.18055e-015 0 -0 3.18055e-015 0 3.18055e-015 5.95877e-031 -7.15625e-015 4.77083e-015 3.18055e-015 -7.15625e-015 1.59028e-015 3.18055e-015 0 3.18055e-015 5.95877e-031 -7.15625e-015 4.77083e-015 3.18055e-015 -7.15625e-015 1.59028e-015 -3.18055e-015 0 -0 3.18055e-015 0 3.18055e-015 5.95877e-031 -7.15625e-015 4.77083e-015 3.18055e-015 -7.15625e-015 1.59028e-015 3.18055e-015 0 3.18055e-015 5.95877e-031 -7.15625e-015 4.77083e-015 3.18055e-015 -7.15625e-015 1.59028e-015 6.87326 -8.78452 26.3753 -9.34232 -1.84315 17.4241 -32.3588 -21.6688 25.6807 -7.12966 -11.1911 -3.7169 3.18055e-015 -1.59028e-015 -0 -0 -1.59028e-015 -0 -3.18055e-015 -1.59028e-015 -6.36111e-015 3.18055e-015 7.95139e-016 -0 -3.18055e-015 -9.54166e-015 3.18055e-015 -3.18055e-015 -7.95139e-016 -0 3.18055e-015 -2.38542e-015 -0 -3.18055e-015 -9.54166e-015 3.18055e-015 -3.18055e-015 -7.95139e-016 -0 3.18055e-015 -2.38542e-015 -0 3.18055e-015 7.95139e-016 -0 -3.18055e-015 -9.54166e-015 3.18055e-015 -3.18055e-015 -7.95139e-016 -0 3.18055e-015 -2.38542e-015 -0 -3.18055e-015 -9.54166e-015 3.18055e-015 -3.18055e-015 -7.95139e-016 -0 3.18055e-015 -2.38542e-015 -0 117.555 -41.3509 122.46 56.0858 78.3042 -61.9892 41.2597 42.3513 -67.1546 -117.519 -41.3266 -122.474 -56.214 78.2708 62.1064 -41.2888 42.3124 67.1483 
-7.37736 20.9105 59.5456 -180 77.2185 -180 -0.106612 -4.89137 -0.428669 -0.251491 -9.78179 -0.871303 -0.251491 -9.78177 -0.871303 -3.96132e-007 -32.2237 -1.72979e-006 -4.69454e-007 -15.8902 -1.03628e-007 -4.70634 -9.39597 -25.5553 8.52212 -1.62792 -14.3054 33.4597 -23.8218 -20.7313 6.99632 -11.797 1.79897 1.59028e-015 3.18055e-015 3.18055e-015 3.18055e-015 2.38542e-015 6.36111e-015 1.59028e-015 1.59028e-015 3.18055e-015 3.18055e-015 7.95139e-016 -0 1.59028e-015 8.74653e-015 3.18055e-015 -3.18055e-015 2.38542e-015 3.18055e-015 -1.32417e-031 2.38542e-015 3.18055e-015 1.59028e-015 8.74653e-015 3.18055e-015 -3.18055e-015 2.38542e-015 3.18055e-015 -1.32417e-031 2.38542e-015 3.18055e-015 3.18055e-015 7.95139e-016 -0 1.59028e-015 8.74653e-015 3.18055e-015 -3.18055e-015 2.38542e-015 3.18055e-015 -1.32417e-031 2.38542e-015 3.18055e-015 1.59028e-015 8.74653e-015 3.18055e-015 -3.18055e-015 2.38542e-015 3.18055e-015 -1.32417e-031 2.38542e-015 3.18055e-015 5.23586 -9.53516 25.1471 -8.80655 -1.71613 15.7086 -31.0151 -20.7121 22.3748 -7.35557 -11.4096 -3.68983 -0 -2.38542e-015 -0 -2.99894e-007 -3.72971e-007 -1.63157e-006 3.18055e-015 -2.38542e-015 -0 -0 0 3.18055e-015 1.32417e-030 -1.19271e-014 6.36111e-015 -2.99894e-007 -3.72971e-007 -1.63157e-006 0 0 -3.18055e-015 1.32417e-030 -1.19271e-014 6.36111e-015 -2.99894e-007 -3.72971e-007 -1.63157e-006 0 0 -3.18055e-015 -0 0 3.18055e-015 1.32417e-030 -1.19271e-014 6.36111e-015 -2.99894e-007 -3.72971e-007 -1.63157e-006 0 0 -3.18055e-015 1.32417e-030 -1.19271e-014 6.36111e-015 -2.99894e-007 -3.72971e-007 -1.63157e-006 0 0 -3.18055e-015 108.527 -44.9104 117.008 34.857 75.7258 -41.1481 38.9837 41.3665 -64.316 -108.49 -44.831 -117.065 -34.9961 75.7045 41.2804 -39.0989 41.3007 64.3801 
-7.37658 20.6702 59.6593 -180 78.8833 -180 -0.111288 -4.23153 -0.426295 -0.255293 -8.46214 -0.864409 -0.255293 -8.46215 -0.864409 -4.83496e-006 -33.14 -3.02303e-006 5.53721e-007 -16.5568 8.72074e-008 -3.80336 -10.4362 -25.7667 8.52212 -1.6279 -14.3054 33.1025 -23.5052 -20.2249 7.68353 -12.6482 1.93031 -6.88341e-007 -4.94438e-007 -7.54417e-008 -1.37668e-006 -9.88875e-007 -1.50883e-007 -6.88341e-007 -4.94438e-007 -7.54417e-008 1.59028e-015 7.95139e-016 -3.18055e-015 -6.88341e-007 -4.94438e-007 -7.54417e-008 -1.37668e-006 -9.88875e-007 -1.50883e-007 -6.88341e-007 -4.94438e-007 -7.54417e-008 -6.88341e-007 -4.94438e-007 -7.54417e-008 -1.37668e-006 -9.88875e-007 -1.50883e-007 -6.88341e-007 -4.94438e-007 -7.54417e-008 1.59028e-015 7.95139e-016 -3.18055e-015 -6.88341e-007 -4.94438e-007 -7.54417e-008 -1.37668e-006 -9.88875e-007 -1.50883e-007 -6.88341e-007 -4.94438e-007 -7.54417e-008 -6.88341e-007 -4.94438e-007 -7.54417e-008 -1.37668e-006 -9.88875e-007 -1.50883e-007 -6.88341e-007 -4.94438e-007 -7.54417e-008 4.28734 -10.639 25.4639 -8.70539 -1.69047 15.3366 -30.7101 -20.3894 21.8271 -7.99655 -12.2422 -3.88425 1.96172e-006 1.25863e-006 1.64783e-006 3.18055e-015 6.36111e-015 -3.18055e-015 4.41391e-031 7.95139e-015 -3.18055e-015 3.18055e-015 1.59028e-015 -0 1.96172e-006 1.25863e-006 1.64783e-006 3.18055e-015 9.54166e-015 -0 0 6.36111e-015 -0 1.96172e-006 1.25863e-006 1.64783e-006 3.18055e-015 9.54166e-015 -0 0 6.36111e-015 -0 3.18055e-015 1.59028e-015 -0 1.96172e-006 1.25863e-006 1.64783e-006 3.18055e-015 9.54166e-015 -0 0 6.36111e-015 -0 1.96172e-006 1.25863e-006 1.64783e-006 3.18055e-015 9.54166e-015 -0 0 6.36111e-015 -0 106.421 -43.6768 115.612 34.9986 75.7795 -41.3288 41.1531 39.9711 -66.0025 -106.379 -43.5438 -115.706 -35.1361 75.7576 41.4612 -41.3432 39.8751 66.1239 
